<svg width="512" height="512" viewBox="0 0 512 512" xmlns="http://www.w3.org/2000/svg" role="img" aria-label="Chore Wheel of Fortune">
  <defs>
    <radialGradient id="bg" cx="50%" cy="45%" r="70%">
      <stop offset="0%" stop-color="#3b0a63"/>
      <stop offset="100%" stop-color="#12002e"/>
    </radialGradient>
    <filter id="glow" x="-30%" y="-30%" width="160%" height="160%">
      <feGaussianBlur stdDeviation="6" result="b"/>
      <feMerge><feMergeNode in="b"/><feMergeNode in="SourceGraphic"/></feMerge>
    </filter>
  </defs>
  <g transform="translate(256 268)">
    <g>
      <path d="M0 0 L0 -180 A180 180 0 0 1 127.3 -127.3 Z" fill="#ff3d81"/>
      <path d="M0 0 L127.3 -127.3 A180 180 0 0 1 180 0 Z" fill="#ffb020"/>
      <path d="M0 0 L180 0 A180 180 0 0 1 127.3 127.3 Z" fill="#2ee6a6"/>
      <path d="M0 0 L127.3 127.3 A180 180 0 0 1 0 180 Z" fill="#38bdf8"/>
      <path d="M0 0 L0 180 A180 180 0 0 1 -127.3 127.3 Z" fill="#a78bfa"/>
      <path d="M0 0 L-127.3 127.3 A180 180 0 0 1 -180 0 Z" fill="#ff3d81"/>
      <path d="M0 0 L-180 0 A180 180 0 0 1 -127.3 -127.3 Z" fill="#ffb020"/>
      <path d="M0 0 L-127.3 -127.3 A180 180 0 0 1 0 -180 Z" fill="#2ee6a6"/>
    </g>
    <circle r="180" fill="none" stroke="#ffffffcc" stroke-width="8"/>
    <circle r="34" fill="#fff" stroke="#ffd54a" stroke-width="8"/>
    <g fill="#fff59d" filter="url(#glow)">
      <circle cx="0" cy="-198" r="9"/><circle cx="140" cy="-140" r="9"/>
      <circle cx="198" cy="0" r="9"/><circle cx="140" cy="140" r="9"/>
      <circle cx="0" cy="198" r="9"/><circle cx="-140" cy="140" r="9"/>
      <circle cx="-198" cy="0" r="9"/><circle cx="-140" cy="-140" r="9"/>
    </g>
  </g>
  <path d="M256 60 L286 112 L226 112 Z" fill="#ffd54a" stroke="#fff" stroke-width="4"/>
</svg>
